<svg width="60" height="60" viewBox="0 0 60 60" fill="none" xmlns="http://www.w3.org/2000/svg">
<path fill-rule="evenodd" clip-rule="evenodd" d="M29.9463 0.000183709C22.8358 0.00116638 15.9577 2.59994 10.5421 7.33164C5.12663 12.0633 1.52706 18.6193 0.387325 25.8267C-0.752409 33.0342 0.642049 40.4229 4.32125 46.6713C8.00046 52.9196 13.7244 57.6199 20.4691 59.9314C21.9667 60.217 22.6084 59.2724 22.6084 58.4595V53.2309C14.2866 55.0763 12.5323 49.1007 12.5323 49.1007C11.9471 47.2176 10.7155 45.6171 9.06667 44.5971C6.34976 42.7078 9.2806 42.7298 9.2806 42.7298C10.2296 42.8674 11.1354 43.226 11.9289 43.7781C12.7223 44.3302 13.3824 45.0612 13.8587 45.9153C14.6874 47.4415 16.0723 48.5673 17.7091 49.0452C19.3459 49.5231 21.1004 49.3139 22.5871 48.4636C22.7078 46.9049 23.377 45.4446 24.4696 44.3555C17.8378 43.5646 10.8423 40.9283 10.8423 29.153C10.7938 26.0947 11.8974 23.1353 13.9229 20.8926C13.0061 18.2436 13.1133 15.3344 14.2224 12.7641C14.2224 12.7641 16.7254 11.9293 22.4587 15.9057C27.3608 14.5325 32.5316 14.5325 37.4338 15.9057C43.1457 11.9293 45.6487 12.7641 45.6487 12.7641C46.7578 15.3344 46.865 18.2436 45.9482 20.8926C47.9737 23.1353 49.0773 26.0947 49.0288 29.153C49.0288 40.9722 42.0333 43.5646 35.3587 44.3335C36.0737 45.0777 36.625 45.9707 36.9756 46.9522C37.3262 47.9337 37.4678 48.981 37.391 50.0234V58.4595C37.391 59.4701 37.9258 60.239 39.5303 59.9314C46.2839 57.617 52.0138 52.9077 55.6924 46.6478C59.3711 40.388 60.7578 32.9871 59.6041 25.7723C58.4503 18.5576 54.8315 12.0009 49.3965 7.27798C43.9615 2.55508 37.0659 -0.025075 29.9463 0.000183709Z" fill="#4A4A4A"/>
</svg>
