<svg width="216" height="85" viewBox="0 0 216 85" fill="none" xmlns="http://www.w3.org/2000/svg">
<path d="M112.072 31.1938L122.4 30.5354C122.636 32.2008 123.068 33.4403 123.774 34.3311C124.913 35.7255 126.484 36.4227 128.565 36.4227C130.097 36.4227 131.314 36.0741 132.139 35.3382C132.924 34.7572 133.395 33.8276 133.395 32.8593C133.395 31.9297 132.963 31.0389 132.217 30.4579C131.432 29.7607 129.586 29.0635 126.68 28.4438C121.929 27.398 118.512 26.0037 116.51 24.222C114.507 22.5565 113.368 20.1163 113.447 17.5213C113.447 15.7396 113.997 13.9579 115.018 12.4861C116.196 10.8206 117.806 9.50366 119.73 8.76774C121.811 7.8769 124.717 7.41211 128.369 7.41211C132.845 7.41211 136.262 8.22549 138.618 9.89098C140.974 11.5177 142.388 14.1515 142.82 17.7537L132.61 18.3346C132.335 16.7853 131.785 15.6621 130.882 14.9262C129.979 14.1903 128.801 13.8417 127.269 13.8417C126.013 13.8417 125.07 14.1128 124.442 14.6163C123.853 15.0811 123.46 15.7783 123.5 16.553C123.5 17.1339 123.814 17.6762 124.285 18.0248C124.795 18.4896 126.013 18.9156 127.937 19.303C132.688 20.31 136.065 21.317 138.147 22.3628C140.228 23.4086 141.72 24.6868 142.623 26.1973C143.566 27.7466 144.037 29.5283 143.998 31.3487C143.998 33.5177 143.369 35.6868 142.113 37.5072C140.817 39.4051 139.011 40.8769 136.89 41.7677C134.652 42.7361 131.824 43.2396 128.447 43.2396C122.479 43.2396 118.355 42.1163 116.039 39.8311C113.722 37.5459 112.347 34.6797 112.072 31.1938ZM2.47392 42.6586V8.03183H20.5767C23.9145 8.03183 26.5063 8.30295 28.2733 8.88394C30.0012 9.42619 31.5326 10.5494 32.5536 12.06C33.6924 13.7255 34.2422 15.6621 34.2029 17.6762C34.3207 21.0846 32.5536 24.3382 29.5299 26.0424C28.3519 26.7008 27.056 27.1656 25.7209 27.398C26.7026 27.6692 27.6843 28.1339 28.5482 28.6762C29.2158 29.2184 29.7656 29.8382 30.276 30.4966C30.8651 31.1551 31.3756 31.891 31.8075 32.6656L37.0695 42.6973H24.7392L18.9274 32.0459C18.1813 30.6903 17.553 29.7994 16.964 29.3734C16.1786 28.8311 15.2362 28.56 14.2937 28.56H13.3513V42.6199H2.47392V42.6586ZM13.3513 22.053H17.9457C18.9274 21.9755 19.8699 21.8206 20.8123 21.5882C21.5192 21.472 22.1475 21.0846 22.5794 20.5037C23.6397 19.1093 23.4826 17.1339 22.1867 15.9332C21.4799 15.3523 20.1055 15.0424 18.1421 15.0424H13.3513V22.053ZM0 72.3276L10.3276 71.6692C10.5632 73.3346 10.9952 74.5741 11.702 75.4649C12.8015 76.8593 14.4116 77.5952 16.4928 77.5952C18.0243 77.5952 19.2416 77.2466 20.0662 76.5107C20.8516 75.891 21.3228 75.0001 21.3228 74.0318C21.3228 73.1023 20.8909 72.2114 20.1448 71.6304C19.3594 70.9332 17.5138 70.2361 14.5686 69.6163C9.81713 68.5706 6.40077 67.1762 4.39808 65.3945C2.39538 63.729 1.25659 61.2889 1.33513 58.6938C1.33513 56.9121 1.88489 55.1304 2.90587 53.6586C4.08393 51.9931 5.69394 50.6762 7.6181 49.9403C9.69933 49.0494 12.6052 48.5846 16.2572 48.5846C20.7338 48.5846 24.1502 49.398 26.5063 51.0635C28.8624 52.729 30.2368 55.3241 30.6687 58.9262L20.4589 59.5072C20.184 57.9579 19.6343 56.8347 18.7311 56.0987C17.8672 55.3628 16.6499 55.0142 15.1184 55.053C13.8618 55.053 12.9193 55.3241 12.2911 55.8663C11.6628 56.3311 11.3093 57.0283 11.3486 57.803C11.3486 58.3839 11.6628 58.9262 12.134 59.2748C12.6445 59.7396 13.8618 60.1656 15.786 60.553C20.5374 61.56 23.9145 62.567 25.9958 63.6128C28.077 64.6586 29.5692 65.9368 30.4724 67.4473C31.4148 68.9966 31.8861 70.7783 31.8861 72.56C31.8861 74.729 31.2185 76.8593 30.0012 78.6797C28.7053 80.5776 26.8989 82.0494 24.7784 82.9403C22.5401 83.9086 19.7128 84.4121 16.3357 84.4121C10.3669 84.4121 6.2437 83.2889 3.92685 81.0037C1.61001 78.6797 0.314148 75.8135 0 72.3276H0Z" fill="#4A4A4A"/>
<path d="M51.5193 69.568L60.9678 72.4121C60.4602 74.7887 59.4061 77.0485 57.9614 79.0355C56.634 80.7887 54.877 82.1524 52.8858 83.0485C50.8555 83.9446 48.2787 84.4121 45.1552 84.4121C41.368 84.4121 38.2445 83.8667 35.8629 82.7757C33.4422 81.6848 31.3729 79.7368 29.6159 76.9705C27.859 74.2043 27 70.6589 27 66.3342C27 60.568 28.5227 56.1264 31.6071 53.0485C34.6916 49.9706 39.0254 48.4121 44.6476 48.4121C49.0595 48.4121 52.4954 49.3082 55.0332 51.0615C57.532 52.8537 59.4061 55.5809 60.6554 59.2433L51.1288 61.3472C50.8946 60.529 50.5432 59.7108 50.0747 59.0095C49.489 58.1913 48.7472 57.568 47.8492 57.1004C46.9512 56.6329 45.9361 56.4381 44.9209 56.4381C42.4612 56.4381 40.5871 57.4121 39.2987 59.3991C38.3226 60.8407 37.815 63.1394 37.815 66.2563C37.815 70.1134 38.4007 72.7628 39.572 74.2043C40.7433 75.6459 42.3831 76.3472 44.5305 76.3472C46.5998 76.3472 48.1615 75.7628 49.2157 74.6329C50.2699 73.4251 51.0508 71.7498 51.5193 69.568ZM73.5788 48.9965H84.3548V61.1913H96.1459V48.9965H107V83.8277H96.1459V69.7238H84.3548V83.8277H73.5788V48.9965V48.9965Z" fill="#4A4A4A"/>
<path d="M106 66.4316C106 60.7494 107.592 56.3126 110.738 53.1602C113.884 50.0078 118.312 48.4121 123.944 48.4121C129.731 48.4121 134.159 49.9689 137.305 53.0824C140.451 56.1959 142.004 60.5548 142.004 66.1591C142.004 70.2456 141.305 73.5537 139.946 76.1613C138.625 78.7299 136.567 80.8316 134.042 82.2326C131.44 83.6726 128.216 84.4121 124.371 84.4121C120.448 84.4121 117.225 83.7894 114.661 82.544C112.02 81.2208 109.845 79.1581 108.408 76.6283C106.816 73.904 106 70.5181 106 66.4316ZM116.72 66.4705C116.72 69.9732 117.38 72.5029 118.662 74.0597C119.943 75.5775 121.73 76.3559 123.983 76.3559C126.274 76.3559 128.061 75.6164 129.343 74.0986C130.624 72.5808 131.246 69.8954 131.246 66.0035C131.246 62.7343 130.585 60.3213 129.265 58.8424C127.944 57.3245 126.158 56.5851 123.905 56.5851C121.924 56.5072 120.021 57.3635 118.701 58.8813C117.38 60.3991 116.72 62.9289 116.72 66.4705V66.4705ZM152.996 66.4316C152.996 60.7494 154.588 56.3126 157.734 53.1602C160.88 50.0078 165.308 48.4121 170.94 48.4121C176.727 48.4121 181.193 49.9689 184.3 53.0824C187.408 56.1959 189 60.5548 189 66.1591C189 70.2456 188.301 73.5537 186.942 76.1613C185.621 78.7299 183.562 80.8316 181.038 82.2326C178.436 83.6726 175.212 84.4121 171.367 84.4121C167.444 84.4121 164.22 83.7894 161.657 82.544C159.016 81.2208 156.841 79.1581 155.404 76.6283C153.811 73.904 152.996 70.5181 152.996 66.4316V66.4316ZM163.715 66.4705C163.715 69.9732 164.376 72.5029 165.657 74.0597C166.939 75.5775 168.726 76.3559 170.978 76.3559C173.27 76.3559 175.057 75.6164 176.338 74.0986C177.62 72.5808 178.241 69.8954 178.241 66.0035C178.241 62.7343 177.581 60.3213 176.261 58.8424C174.94 57.3245 173.153 56.5851 170.901 56.5851C168.92 56.5072 166.978 57.3635 165.696 58.8813C164.376 60.3991 163.715 62.9289 163.715 66.4705V66.4705Z" fill="#4A4A4A"/>
<path d="M188.04 49.4121H198.955V75.0452H216V83.4121H188V49.4121H188.04Z" fill="#4A4A4A"/>
<path d="M176.315 47.0974C187.162 38.9234 190.507 25.0671 183.786 16.1486C177.065 7.22999 162.824 6.62642 151.977 14.8004C141.13 22.9745 137.785 36.8308 144.506 45.7493C151.227 54.6679 165.468 55.2715 176.315 47.0974Z" fill="#CECECE"/>
<path d="M176.314 47.0974C187.161 38.9233 190.506 25.0671 183.785 16.1485C177.064 7.22993 162.823 6.62636 151.976 14.8004C141.129 22.9744 137.784 36.8307 144.505 45.7493C151.226 54.6678 165.468 55.2714 176.314 47.0974Z" fill="#CECECE"/>
<path d="M176.313 47.0974C187.16 38.9233 190.505 25.0671 183.784 16.1485C177.063 7.22993 162.822 6.62636 151.975 14.8004C141.128 22.9744 137.783 36.8307 144.504 45.7493C151.225 54.6678 165.467 55.2714 176.313 47.0974Z" fill="#CECECE" stroke="#4A4A4A" stroke-width="4" stroke-miterlimit="10"/>
<path d="M176.313 47.0974C187.16 38.9233 190.505 25.0671 183.784 16.1485C177.063 7.22993 162.822 6.62636 151.975 14.8004C141.128 22.9744 137.783 36.8307 144.504 45.7493C151.225 54.6678 165.467 55.2714 176.313 47.0974Z" stroke="#4A4A4A" stroke-width="4" stroke-miterlimit="10"/>
<path d="M176.313 47.0974C187.16 38.9233 190.505 25.0671 183.784 16.1485C177.063 7.22993 162.822 6.62636 151.975 14.8004C141.128 22.9744 137.783 36.8307 144.504 45.7493C151.225 54.6678 165.467 55.2714 176.313 47.0974Z" fill="#CECECE" stroke="#4A4A4A" stroke-width="4" stroke-miterlimit="10"/>
<path d="M176.314 47.0974C187.161 38.9233 190.506 25.0671 183.785 16.1485C177.064 7.22993 162.823 6.62636 151.976 14.8004C141.129 22.9744 137.784 36.8307 144.505 45.7493C151.226 54.6678 165.468 55.2714 176.314 47.0974Z" stroke="#4A4A4A" stroke-width="4" stroke-miterlimit="10"/>
<path d="M153.174 28.3835L157.078 25.651L161.879 32.4822C162.699 33.5752 163.323 34.7463 163.792 36.0344C164.065 37.0103 163.987 38.0643 163.597 39.0011C163.089 40.1722 162.269 41.1481 161.176 41.8507C159.888 42.7486 158.795 43.256 157.858 43.4122C156.96 43.5683 156.024 43.4122 155.165 43.0218C154.228 42.5534 153.408 41.8898 152.784 41.031L156.141 37.9082C156.414 38.3375 156.765 38.7279 157.156 39.0402C157.429 39.2354 157.741 39.3525 158.093 39.3525C158.366 39.3525 158.639 39.2354 158.834 39.0792C159.225 38.845 159.498 38.3766 159.459 37.9082C159.342 37.2445 159.068 36.5809 158.639 36.0735L153.174 28.3835V28.3835ZM164.885 32.7164L168.437 29.9059C168.827 30.3743 169.335 30.7256 169.881 30.9208C170.662 31.155 171.482 30.9989 172.145 30.4914C172.614 30.1791 173.004 29.7497 173.16 29.2032C173.394 28.5006 173.004 27.7199 172.301 27.4857C172.184 27.4466 172.067 27.4076 171.95 27.4076C171.482 27.3686 170.662 27.5638 169.452 28.0712C167.461 28.891 165.9 29.2032 164.729 29.0861C163.597 28.969 162.543 28.3835 161.918 27.4076C161.45 26.744 161.215 25.9633 161.176 25.1826C161.176 24.2848 161.411 23.387 161.918 22.6453C162.66 21.5913 163.557 20.6935 164.65 19.9909C166.29 18.8588 167.734 18.3123 168.983 18.3123C170.233 18.3123 171.404 18.8979 172.497 20.108L168.983 22.8795C168.281 21.9817 166.954 21.7865 166.056 22.4891L165.939 22.6062C165.548 22.8405 165.275 23.1918 165.119 23.6212C165.002 23.9335 165.08 24.2848 165.275 24.558C165.431 24.7532 165.665 24.9093 165.939 24.9093C166.251 24.9484 166.797 24.7922 167.578 24.4409C169.53 23.6212 171.013 23.1527 172.028 22.9966C172.887 22.8405 173.785 22.9185 174.605 23.2699C175.346 23.5821 175.971 24.1286 176.4 24.7922C176.947 25.5729 177.259 26.5098 177.298 27.4857C177.337 28.5006 177.064 29.4765 176.517 30.3353C175.815 31.3892 174.917 32.287 173.863 32.9897C171.716 34.473 169.959 35.0976 168.554 34.8634C167.032 34.6292 165.783 33.8485 164.885 32.7164V32.7164Z" fill="#4A4A4A"/>
</svg>
